# xmcd
#
# Track frame offsets: 
#        150
#        20179
#        32505
#        53565
#        78000
#        105522
#        134819
#        153525
#        204381
#        221131
#        245659
#        264283
#        334770
#
# Disc length: 4788 seconds
#
# Revision: 0
# Processed by: cddbd v1.4PL0 Copyright (c) Steve Scherf et al.
# Submitted via: ExactAudioCopy v0.90b4
#
DISCID=b412b20d
DTITLE=Van Morrison - Golden Gate Park
DYEAR=1999
DGENRE=Celtic
TTITLE0=Moondance
TTITLE1=Days Like This
TTITLE2=Cleaning Windows
TTITLE3=Vanlose Stairway > Trans-Euro Train
TTITLE4=Help Me > Night Shirt
TTITLE5=Philosophers Stone
TTITLE6=Naked In The Jungle
TTITLE7=In The Afternoon > Joe Turner Sings > Don't You Make Me High >
TTITLE7=Sex Machine
TTITLE8=Jackie Wilson Said ...
TTITLE9=Georgia On My Mind
TTITLE10=Precious Time
TTITLE11=See Me Through > Burning Ground
TTITLE12=Gloria > Pretty Thing
EXTD=
EXTT0=
EXTT1=
EXTT2=
EXTT3=
EXTT4=
EXTT5=
EXTT6=
EXTT7=
EXTT8=
EXTT9=
EXTT10=
EXTT11=
EXTT12=
PLAYORDER=
